<svg xmlns="http://www.w3.org/2000/svg" width="49.219" height="35.339" viewBox="0 0 49.219 35.339">
  <path id="패스_2666" data-name="패스 2666" d="M54.505-3.9c6.3,0,11.714,4.331,11.714,13.683,0,13.142-10.73,20.869-16.833,21.656L48.107,27.8c3.544-2.313,6.448-6.3,6.152-8.613-3.987-.3-10.434-2.412-10.434-11.074C43.775,1.563,47.467-3.9,54.505-3.9Zm-26.726,0c6.3,0,11.714,4.331,11.714,13.683,0,13.142-10.73,20.869-16.833,21.656L21.381,27.8c3.495-2.313,6.4-6.251,6.054-8.613C23.5,18.889,17,16.772,17,8.11,17,1.563,20.741-3.9,27.779-3.9Z" transform="translate(66.219 31.439) rotate(180)" fill="#545454"/>
</svg>
