<svg xmlns="http://www.w3.org/2000/svg" width="310.525" height="39.115" viewBox="0 0 310.525 39.115">
    <defs>
        <linearGradient id="linear-gradient" x2="1" y1=".5" y2=".5" gradientUnits="objectBoundingBox">
            <stop offset="0" stop-color="#f5ce63"/>
            <stop offset="1" stop-color="#ffee85"/>
        </linearGradient>
        <style>
            .cls-2{fill:#16140c}
        </style>
    </defs>
    <g id="ic_sign_logo" transform="translate(0 0)">
        <rect id="Bar" width="240.061" height="13.787" fill="url(#linear-gradient)" rx="5.64" transform="translate(13.446 25.328)"/>
        <ellipse id="타원_246" cx="3.814" cy="3.96" rx="3.814" ry="3.96" transform="translate(243.041 28.261)"/>
        <g id="그룹_9" transform="translate(49.936 6.633)">
            <path id="패스_1383" d="M194.522 412.455v24.985H187.9v-9.41h-7.424v9.409h-6.632v-24.984h6.632v9.377h7.424v-9.377z" class="cls-2" transform="translate(-173.847 -411.851)"/>
            <path id="패스_1384" d="M194.32 412.455h6.633v24.985h-6.633z" class="cls-2" transform="translate(-169.296 -411.851)"/>
            <path id="패스_1385" d="M229.178 425.631c0 7.594-5.734 12.506-12.833 12.506-7.935 0-13.933-5.921-13.933-13.049s6.014-13.127 13.763-13.127a14.515 14.515 0 0 1 8.912 3.3l-3.673 5.037a8.026 8.026 0 0 0-5.239-2.138 6.922 6.922 0 1 0 .434 13.825c3.021 0 5.176-1.457 5.269-3.845h-5.718v-4.94h12.817a16.52 16.52 0 0 1 .201 2.431z" class="cls-2" transform="translate(-167.497 -411.961)"/>
            <path id="패스_1386" d="M247.658 412.455v24.985h-6.618v-9.41h-7.424v9.409h-6.633v-24.984h6.633v9.377h7.424v-9.377z" class="cls-2" transform="translate(-162.036 -411.851)"/>
            <path id="패스_1387" d="M263.652 431.208v6.231h-16.2v-24.984h6.632v18.753z" class="cls-2" transform="translate(-157.485 -411.851)"/>
            <path id="패스_1388" d="M263.021 412.455h6.633v24.985h-6.633z" class="cls-2" transform="translate(-154.026 -411.851)"/>
            <path id="패스_1389" d="M297.879 425.631c0 7.594-5.734 12.506-12.833 12.506-7.935 0-13.933-5.921-13.933-13.049s6.014-13.127 13.762-13.127a14.516 14.516 0 0 1 8.913 3.3l-3.673 5.037a8.029 8.029 0 0 0-5.24-2.138 6.922 6.922 0 1 0 .435 13.825c3.023 0 5.175-1.457 5.269-3.845h-5.719v-4.94h12.817a16.52 16.52 0 0 1 .202 2.431z" class="cls-2" transform="translate(-152.227 -411.961)"/>
            <path id="패스_1390" d="M316.359 412.455v24.985h-6.617v-9.41h-7.424v9.409h-6.633v-24.984h6.633v9.377h7.424v-9.377z" class="cls-2" transform="translate(-146.766 -411.851)"/>
            <path id="패스_1391" d="M333.544 418.656h-5.983v18.784h-6.649v-18.784h-6v-6.2h18.63z" class="cls-2" transform="translate(-142.491 -411.851)"/>
            <path id="패스_1392" d="M375.107 412.265v25.217h-6.635v-9.9l-6.726 9.485h-.046l-6.742-9.485v9.9h-6.632v-25.217h2.665l10.726 14.693 10.724-14.693z" class="cls-2" transform="translate(-135.065 -411.893)"/>
            <path id="패스_1393" d="M380.353 418.624v3.487h7.935v5.533h-7.935v3.58h9.639v6.215H373.8v-24.984H390v6.169z" class="cls-2" transform="translate(-129.403 -411.851)"/>
        </g>
        <g id="그룹_10" transform="translate(0 0)">
            <ellipse id="타원_247" cx="19.477" cy="19.476" fill="#f5ce63" rx="19.477" ry="19.476"/>
            <path id="패스_1394" d="M161.128 414.075a7.36 7.36 0 0 0-10.383-.3l-2.322 2.322-8.219 8.217c-.018.02-.031.042-.049.06a1.943 1.943 0 0 0-.134.166c-.031.042-.059.084-.086.128a1.713 1.713 0 0 0-.089.17 1.5 1.5 0 0 0-.065.16c-.02.054-.035.109-.05.165s-.027.126-.035.19c0 .03-.015.057-.017.088l-.788 8.894v.16c0 .054-.007.106 0 .161v.022c.006.057.021.112.032.167a1.737 1.737 0 0 0 .039.18c.015.05.037.1.055.142s.048.121.077.18c.023.043.051.081.077.122a1.812 1.812 0 0 0 .111.161 1.4 1.4 0 0 0 .1.11 1.706 1.706 0 0 0 .134.132c.04.034.082.064.125.1s.1.07.153.1.093.048.141.071a1.827 1.827 0 0 0 .324.115 1.743 1.743 0 0 0 .2.038c.028 0 .054.012.082.016.053 0 .105.006.155.006h.012c.051 0 .1 0 .154-.006l8.894-.788c.031 0 .057-.012.087-.017a1.709 1.709 0 0 0 .191-.037c.055-.013.11-.029.163-.048s.111-.043.167-.068.108-.054.158-.083.1-.061.143-.1.1-.078.149-.121c.022-.021.048-.035.068-.056l10.541-10.542a6.886 6.886 0 0 0 2-5.2 7.735 7.735 0 0 0-2.295-5.177zm-12.351 17.883l-6.071.538.538-6.071 6.465-6.463 5.533 5.532zm10.074-10.074l-1.036 1.037-5.532-5.533 1.035-1.035a3.725 3.725 0 0 1 5.237.3 4.111 4.111 0 0 1 1.233 2.748 3.3 3.3 0 0 1-.937 2.483z" transform="translate(-131.682 -405.369)"/>
        </g>
    </g>
</svg>
